<svg height="512pt" viewBox="-14 0 512 512" width="512pt" xmlns="http://www.w3.org/2000/svg"><path d="m242 269.960938c128.144531 0 231.996094 103.882812 231.996094 232.03125h-463.992188c0-128.148438 103.882813-232.03125 231.996094-232.03125zm0 0" fill="#bdd9ff" fill-rule="evenodd"/><path d="m221.339844 178.011719c0 2.59375-.925782 4.820312-2.773438 6.667969-1.851562 1.847656-4.117187 2.773437-6.789062 2.773437-2.675782 0-4.941406-.925781-6.789063-2.773437-1.847656-1.847657-2.773437-4.113282-2.773437-6.789063v-67.765625c0-2.515625.964844-4.78125 2.890625-6.785156 1.929687-2.007813 4.191406-3.011719 6.789062-3.011719 2.597657 0 4.820313.964844 6.671875 2.890625 1.847656 1.929688 2.773438 4.234375 2.773438 6.90625zm0 0"/><path d="m256.054688 157.71875v19.242188c0 2.597656-.945313 4.839843-2.835938 6.730468-1.886719 1.890625-4.128906 2.832032-6.726562 2.832032-2.597657 0-4.839844-.941407-6.730469-2.832032s-2.832031-4.210937-2.832031-6.964844v-66.347656c0-2.835937.960937-5.214844 2.890624-7.144531 1.925782-1.925781 4.269532-2.890625 7.023438-2.890625h22.429688c8.890624 0 16.132812 2.675781 21.722656 8.027344 5.585937 5.351562 8.382812 12.320312 8.382812 20.894531 0 8.5-2.640625 15.371094-7.910156 20.601563-5.273438 5.234374-12.277344 7.851562-21.015625 7.851562zm0-40.257812v23.492187h12.15625c3.070312 0 5.746093-1.140625 8.027343-3.421875 2.285157-2.285156 3.425781-5 3.425781-8.148438 0-3.304687-1.082031-6.117187-3.246093-8.441406-2.167969-2.320312-4.859375-3.480468-8.089844-3.480468zm0 0"/><path d="m204.386719 376.253906c.878906 20.011719 17.375 35.972656 37.613281 35.972656 20.234375 0 36.734375-15.960937 37.609375-35.972656.03125-.566406.058594-1.105468.058594-1.671875 0-16.242187-10.289063-30.074219-24.660157-35.347656-4.5625 5.105469-8.925781 10.007813-13.007812 14.65625-4.082031-4.621094-8.417969-9.523437-12.980469-14.65625-14.402343 5.273437-24.660156 19.105469-24.660156 35.347656 0 .566407 0 1.105469.027344 1.671875zm0 0" fill="#cbe558" fill-rule="evenodd"/><path d="m187.890625 291.898438c14.144531 17.035156 28.429687 33.050781 41.128906 47.335937 4.5625 5.132813 8.898438 10.035156 12.980469 14.65625 4.082031-4.648437 8.445312-9.550781 13.007812-14.65625 12.699219-14.285156 27.011719-30.300781 41.15625-47.335937 3.484376-4.195313 7-8.472657 10.457032-12.8125 35.375-44.273438 67.0625-93.933594 67.0625-137.390626 0-72.730468-58.953125-131.691406-131.683594-131.691406s-131.6875 58.960938-131.6875 131.695313c0 43.3125 31.746094 93.027343 67.121094 137.359375 3.457031 4.335937 6.941406 8.617187 10.457031 12.839844zm54.109375-60.121094c-48.835938 0-88.40625-39.566406-88.40625-88.40625s39.570312-88.4375 88.40625-88.4375 88.433594 39.597656 88.433594 88.4375-39.597656 88.40625-88.433594 88.40625zm0 0" fill="#f46370" fill-rule="evenodd"/><path d="m437.21875 358.910156c-3.269531-4.453125-9.53125-5.414062-13.988281-2.144531-4.453125 3.269531-5.414063 9.535156-2.140625 13.988281 14.476562 19.714844 25.425781 41.335938 32.640625 64.1875-21.421875-21.980468-53.207031-40.273437-92.089844-52.699218-1.03125-3.226563-2.09375-6.429688-3.210937-9.578126-12.128907-34.085937-28.808594-62.066406-48.542969-81.632812.097656-.121094.199219-.246094.296875-.367188 21.484375 6.929688 41.730468 17.070313 60.257812 30.226563 1.757813 1.25 3.78125 1.847656 5.785156 1.847656 3.132813 0 6.214844-1.464843 8.167969-4.210937 3.199219-4.507813 2.140625-10.753906-2.367187-13.953125-18.160156-12.894531-37.832032-23.144531-58.644532-30.570313 32.917969-42.859375 60.308594-89.507812 60.308594-132.304687 0-78.132813-63.5625-141.699219-141.691406-141.699219s-141.691406 63.566406-141.691406 141.699219c0 30.445312 13.925781 65.660156 42.570312 107.65625 5.667969 8.308593 11.683594 16.535156 17.875 24.621093-43.777344 15.652344-82.886718 44.140626-111.253906 81.316407-32.382812 42.4375-49.5 93.167969-49.5 146.699219 0 5.527343 4.480469 10.007812 10.003906 10.007812h463.988282c5.527343 0 10.007812-4.480469 10.007812-10.007812 0-51.925782-16.175781-101.402344-46.78125-143.082032zm-99.019531 16.769532c-15.523438-3.761719-31.957031-6.636719-49.113281-8.527344-1.941407-12.214844-8.613282-23.171875-18.351563-30.5625 8.503906-9.566406 17.394531-19.65625 26.296875-30.132813 16.667969 16.972657 30.679688 40.878907 41.167969 69.222657zm-217.878907-233.980469c0-67.097657 54.585938-121.6875 121.679688-121.6875s121.679688 54.589843 121.679688 121.6875c0 60.464843-69.125 138.074219-114.867188 189.425781-2.332031 2.617188-4.601562 5.164062-6.808594 7.652344-2.132812-2.402344-4.324218-4.863282-6.570312-7.386719-45.839844-51.503906-115.113282-129.335937-115.113282-189.691406zm92.960938 194.894531c-9.730469 7.386719-16.398438 18.339844-18.339844 30.558594-17.171875 1.886718-33.613281 4.765625-49.148437 8.53125 10.5-28.371094 24.523437-52.292969 41.210937-69.269532 8.992188 10.613282 17.890625 20.730469 26.277344 30.179688zm-108.566406 155.394531h-83.867188c5.835938-34.984375 41.925782-66.5 94.902344-86.199219-6.597656 27.132813-10.351562 56.308594-11.035156 86.199219zm-74.105469-57.398437c21.558594-67.035156 74.402344-121.757813 143.316406-143.941406.085938.105468.167969.207031.253907.3125-19.765626 19.566406-36.464844 47.566406-48.605469 81.679687-1.121094 3.15625-2.1875 6.367187-3.222657 9.605469-38.671874 12.359375-70.328124 30.519531-91.742187 52.34375zm201.382813 57.398437h-107.269532c.804688-33.171875 5.609375-65.054687 13.691406-93.605469 17.875-5.082031 37.207032-8.910156 57.597657-11.222656 4.652343 17.152344 18.5625 30.328125 35.984375 34.027344v70.800781zm12.828124-89.910156c-1.457031.148437-2.921874.175781-4.378906.09375-14.515625-.8125-26.078125-12.875-26.078125-27.589844 0-9.332031 4.746094-17.921875 12.265625-22.972656 2.714844 3.054687 5.339844 6.023437 7.851563 8.882813 1.898437 2.164062 4.640625 3.40625 7.519531 3.40625s5.621094-1.242188 7.519531-3.40625c2.511719-2.863282 5.144531-5.835938 7.859375-8.890626 7.53125 5.054688 12.28125 13.648438 12.28125 22.980469 0 3.691407-.761718 7.40625-2.199218 10.804688-3.859376 9.042969-12.410157 15.628906-22.582032 16.683593-.019531 0-.039062.003907-.058594.007813-.40625.039063.019532-.003906 0 0-1.457031.148437.019532-.003906 0 0zm7.1875 89.910156v-70.800781c16.859376-3.582031 30.429688-16.039062 35.496094-32.386719.042969-.132812.078125-.269531.117188-.402343.125-.410157.25-.820313.363281-1.238282 20.394531 2.3125 39.726563 6.136719 57.597656 11.21875 8.085938 28.554688 12.890625 60.441406 13.695313 93.609375zm127.277344 0c-.683594-29.890625-4.441406-59.066406-11.039062-86.203125 52.976562 19.703125 89.070312 51.214844 94.90625 86.203125zm0 0"/><path d="m242 241.785156c-54.265625 0-98.410156-44.148437-98.410156-98.414062 0-54.28125 44.144531-98.441406 98.410156-98.441406 54.277344 0 98.4375 44.160156 98.4375 98.441406 0 54.265625-44.160156 98.414062-98.4375 98.414062zm0-176.847656c-43.230469 0-78.398438 35.183594-78.398438 78.433594 0 43.230468 35.167969 78.402344 78.398438 78.402344 43.246094 0 78.425781-35.171876 78.425781-78.402344 0-43.25-35.179687-78.433594-78.425781-78.433594zm0 0"/><path d="m406.03125 347.96875c-2.933594 0-5.84375-1.285156-7.820312-3.757812l-.113282-.140626c-3.449218-4.316406-2.75-10.613281 1.5625-14.066406 4.316406-3.453125 10.613282-2.75 14.066406 1.5625l.113282.144532c3.449218 4.3125 2.75 10.609374-1.5625 14.0625-1.84375 1.476562-4.054688 2.195312-6.246094 2.195312zm0 0"/></svg>